<svg xmlns="http://www.w3.org/2000/svg" version="1.1" viewBox="102 166.66 397.87 104.4">
<path d="M0 0 C2.95857409 -0.05379226 5.91617721 -0.09357093 8.875 -0.125 C9.71675781 -0.14175781 10.55851562 -0.15851563 11.42578125 -0.17578125 C12.23144531 -0.18222656 13.03710938 -0.18867188 13.8671875 -0.1953125 C14.98262939 -0.21102295 14.98262939 -0.21102295 16.12060547 -0.22705078 C18 0 18 0 20 2 C20.63842773 3.92016602 20.63842773 3.92016602 21.18359375 6.25390625 C21.38919922 7.10919922 21.59480469 7.96449219 21.80664062 8.84570312 C22.01482422 9.74224609 22.22300781 10.63878906 22.4375 11.5625 C23.98978525 18.16828172 25.73753842 24.59896059 28 31 C28.16604736 30.27409668 28.33209473 29.54819336 28.50317383 28.80029297 C29.26507662 25.48999313 30.03866947 22.18253096 30.8125 18.875 C31.07353516 17.73289063 31.33457031 16.59078125 31.60351562 15.4140625 C32.89937556 9.91065735 34.10615173 4.8839121 37 0 C39.97922593 -0.02683987 42.95821295 -0.04676037 45.9375 -0.0625 C47.21270508 -0.07506836 47.21270508 -0.07506836 48.51367188 -0.08789062 C49.32255859 -0.09111328 50.13144531 -0.09433594 50.96484375 -0.09765625 C51.7137085 -0.10289307 52.46257324 -0.10812988 53.23413086 -0.11352539 C55 0 55 0 56 1 C56.09514592 3.70838086 56.12554932 6.39118513 56.11352539 9.09985352 C56.11367142 9.94856018 56.11381744 10.79726685 56.1139679 11.67169189 C56.11326848 14.49078891 56.10547478 17.30982071 56.09765625 20.12890625 C56.09579217 22.07803817 56.09436822 24.02717055 56.09336853 25.9763031 C56.08954255 31.11706832 56.07971159 36.25780547 56.06866455 41.39855957 C56.05845215 46.64005148 56.05387128 51.8815479 56.04882812 57.12304688 C56.03808939 67.41537892 56.02049195 77.70768274 56 88 C50.06 88 44.12 88 38 88 C36.68638302 85.37276604 36.78746091 83.27389439 36.68359375 80.3359375 C36.64169922 79.21445313 36.59980469 78.09296875 36.55664062 76.9375 C36.51732422 75.761875 36.47800781 74.58625 36.4375 73.375 C36.39431641 72.19164062 36.35113281 71.00828125 36.30664062 69.7890625 C36.20032574 66.85949672 36.09829358 63.92984412 36 61 C35.80881592 61.58515381 35.61763184 62.17030762 35.4206543 62.77319336 C33.99861743 67.08890475 32.53152694 71.35384783 30.8125 75.5625 C30.46832031 76.40941406 30.12414062 77.25632812 29.76953125 78.12890625 C29.38861328 79.05509766 29.38861328 79.05509766 29 80 C28.01 80 27.02 80 26 80 C25.01834721 77.08416415 24.04011699 74.1671912 23.0625 71.25 C22.64581055 70.0125 22.64581055 70.0125 22.22070312 68.75 C21.95322266 67.95078125 21.68574219 67.1515625 21.41015625 66.328125 C21.16402588 65.5949707 20.91789551 64.86181641 20.66430664 64.10644531 C20.02677645 62.08490527 19.49093646 60.06152574 19 58 C18.97494385 58.87325928 18.9498877 59.74651855 18.92407227 60.64624023 C18.82912291 63.87602552 18.72987971 67.10564154 18.62768555 70.33520508 C18.58428566 71.73489199 18.54261436 73.13463359 18.50268555 74.53442383 C18.44510555 76.54261495 18.38086 78.55061149 18.31640625 80.55859375 C18.27974854 81.76829834 18.24309082 82.97800293 18.20532227 84.22436523 C18 87 18 87 17 88 C14.15664952 88.09986975 11.34302837 88.13877881 8.5 88.125 C7.70207031 88.12886719 6.90414063 88.13273437 6.08203125 88.13671875 C0.12660767 88.12660767 0.12660767 88.12660767 -1 87 C-1.1004346 84.36327189 -1.13616846 81.75271184 -1.12939453 79.11547852 C-1.13114685 78.28949158 -1.13289917 77.46350464 -1.13470459 76.61248779 C-1.13912443 73.86793956 -1.13618439 71.1234552 -1.1328125 68.37890625 C-1.13348557 66.47940559 -1.13445561 64.57990502 -1.13571167 62.68040466 C-1.13718887 58.69309675 -1.1350336 54.70581118 -1.13037109 50.71850586 C-1.12467766 45.59909311 -1.12795023 40.47973282 -1.13394356 35.360322 C-1.13755186 31.43563947 -1.13640927 27.51096944 -1.13381577 23.58628654 C-1.13314704 21.69837373 -1.13397302 19.8104598 -1.13629532 17.92254829 C-1.13882581 15.28630684 -1.13497543 12.65015107 -1.12939453 10.01391602 C-1.13141876 9.22786484 -1.13344299 8.44181366 -1.13552856 7.63194275 C-1.11426335 2.22852669 -1.11426335 2.22852669 0 0 Z " fill="#036565" transform="translate(304,169)"/>
<path d="M0 0 C2.79224073 -0.08071788 5.58216566 -0.14035408 8.375 -0.1875 C9.1690625 -0.21263672 9.963125 -0.23777344 10.78125 -0.26367188 C12.85586148 -0.29004405 14.93100865 -0.15486462 17 0 C19.22661725 3.33992588 19.48716262 5.31214152 20 9.25 C20.62772674 14.025207 21.60092263 18.40636262 23 23 C25.74005051 13.63315404 25.74005051 13.63315404 28.1875 4.1875 C29 1 29 1 30 0 C32.69654854 -0.07319621 35.36691458 -0.09242537 38.0625 -0.0625 C38.82111328 -0.05798828 39.57972656 -0.05347656 40.36132812 -0.04882812 C42.24091871 -0.0370068 44.12046899 -0.01907078 46 0 C47.72999092 5.12706401 46.10827839 9.43589803 44.6875 14.4375 C44.46126953 15.27087891 44.23503906 16.10425781 44.00195312 16.96289062 C42.55951336 22.2213526 40.91858317 27.38183564 39.11328125 32.52734375 C37.34944052 37.83607413 36.68108342 41.4417087 38 47 C38.22300781 48.02609375 38.44601562 49.0521875 38.67578125 50.109375 C39.86992487 55.52282608 41.22559377 60.74801661 43 66 C43.93245966 69.03146631 44.8145615 72.07593278 45.6875 75.125 C45.92533203 75.92292969 46.16316406 76.72085938 46.40820312 77.54296875 C46.62798828 78.31511719 46.84777344 79.08726562 47.07421875 79.8828125 C47.27619873 80.57777832 47.47817871 81.27274414 47.6862793 81.98876953 C48 84 48 84 47 88 C41.06 88 35.12 88 29 88 C28.16394232 84.54230431 27.33103511 81.0839029 26.5 77.625 C26.26152344 76.64015625 26.02304687 75.6553125 25.77734375 74.640625 C25.55175781 73.69960937 25.32617188 72.75859375 25.09375 71.7890625 C24.77954102 70.48509521 24.77954102 70.48509521 24.45898438 69.15478516 C24 67 24 67 24 65 C23.34 65 22.68 65 22 65 C21.87625 65.886875 21.7525 66.77375 21.625 67.6875 C21.53347656 68.31527344 21.44195312 68.94304687 21.34765625 69.58984375 C21.0755029 71.4765698 20.8148382 73.36495379 20.55859375 75.25390625 C20.31302734 76.98447266 20.31302734 76.98447266 20.0625 78.75 C19.90910156 79.85859375 19.75570313 80.9671875 19.59765625 82.109375 C19 85 19 85 17 88 C15.12060547 88.34057617 15.12060547 88.34057617 12.8671875 88.29296875 C12.06152344 88.28330078 11.25585938 88.27363281 10.42578125 88.26367188 C9.58402344 88.23853516 8.74226563 88.21339844 7.875 88.1875 C6.60076172 88.16719727 6.60076172 88.16719727 5.30078125 88.14648438 C3.20025163 88.11108219 1.10004707 88.05727401 -1 88 C-1.09905939 83.91380033 -1.08586596 80.43509015 0.25 76.5625 C1.91175063 71.42047918 3.23410816 66.21890272 4.50756836 60.97070312 C5.48812798 56.95539458 6.59688505 53.01463628 7.8125 49.0625 C9.64420442 42.35625976 8.65818209 36.94993713 6.6484375 30.40234375 C6.38240723 29.52811768 6.11637695 28.6538916 5.84228516 27.75317383 C5.425354 26.39035278 5.425354 26.39035278 5 25 C3.9016387 21.37931878 2.82098321 17.75386544 1.75 14.125 C1.46898437 13.20203125 1.18796875 12.2790625 0.8984375 11.328125 C0.63804687 10.43867188 0.37765625 9.54921875 0.109375 8.6328125 C-0.12813477 7.83762207 -0.36564453 7.04243164 -0.61035156 6.22314453 C-1.03411935 3.80533159 -0.76851416 2.308838 0 0 Z " fill="#036666" transform="translate(452,169)"/>
<path d="M0 0 C4.64467639 -0.12359943 9.28839626 -0.21433399 13.93432617 -0.2746582 C15.51457389 -0.2998033 17.09470529 -0.33392474 18.67456055 -0.37719727 C20.94609232 -0.43785708 23.21608744 -0.46620678 25.48828125 -0.48828125 C26.54780754 -0.52699089 26.54780754 -0.52699089 27.6287384 -0.56648254 C29.63012695 -0.56762695 29.63012695 -0.56762695 33 0 C37.35552199 5.22047949 36.67070754 11.48000927 37 18 C31.06 18.33 25.12 18.66 19 19 C18.67 24.61 18.34 30.22 18 36 C21.155625 35.9690625 21.155625 35.9690625 24.375 35.9375 C30.75 35.875 30.75 35.875 33 37 C33.02685095 39.47923801 33.04676547 41.9581884 33.0625 44.4375 C33.07087891 45.14455078 33.07925781 45.85160156 33.08789062 46.58007812 C33.09653588 48.38693559 33.05220011 50.19387603 33 52 C31.05909174 53.94090826 27.52706098 53.39919435 24.9375 53.5625 C22.648125 53.706875 20.35875 53.85125 18 54 C18.33 58.95 18.66 63.9 19 69 C24.61 69.33 30.22 69.66 36 70 C37.09530553 74.38122211 36.6791828 76.36921908 35.625 80.6875 C35.34914063 81.84636719 35.07328125 83.00523437 34.7890625 84.19921875 C34 87 34 87 33 88 C30.55169574 88.08843793 28.13179401 88.11528752 25.68359375 88.09765625 C24.95253922 88.0962413 24.22148468 88.09482635 23.46827698 88.09336853 C21.12464368 88.08775408 18.78110461 88.07519922 16.4375 88.0625 C14.85221492 88.05748686 13.26692834 88.05292363 11.68164062 88.04882812 C7.7877239 88.03777997 3.89387795 88.02050572 0 88 C-1.5657918 84.8684164 -1.13837109 81.53110206 -1.12939453 78.09375 C-1.13114685 77.27737061 -1.13289917 76.46099121 -1.13470459 75.61987305 C-1.13911663 72.91322726 -1.13618738 70.20664648 -1.1328125 67.5 C-1.13348573 65.62434883 -1.13445591 63.74869775 -1.13571167 61.87304688 C-1.13718776 57.93879365 -1.13503691 54.0045631 -1.13037109 50.0703125 C-1.12467386 45.01930944 -1.12795334 39.96835951 -1.13394356 34.9173584 C-1.13755154 31.04329017 -1.13640949 27.16923461 -1.13381577 23.29516602 C-1.13314716 21.43237298 -1.13397263 19.56957881 -1.13629532 17.70678711 C-1.13882571 15.10657695 -1.13497574 12.50645367 -1.12939453 9.90625 C-1.13141876 9.13112061 -1.13344299 8.35599121 -1.13552856 7.55737305 C-1.11426422 2.22852844 -1.11426422 2.22852844 0 0 Z " fill="#056767" transform="translate(366,169)"/>
<path d="M0 0 C1.52489478 -0.01656435 3.04971177 -0.04386148 4.57421875 -0.08203125 C6.76977905 -0.13674185 8.96351831 -0.15866134 11.15966797 -0.17333984 C12.47821777 -0.19315918 13.79676758 -0.21297852 15.15527344 -0.23339844 C18.41748047 0.35009766 18.41748047 0.35009766 20.32324219 2.70629883 C21.47965521 5.50031859 22.16327579 8.05709744 22.66748047 11.03759766 C22.83763672 11.99021484 23.00779297 12.94283203 23.18310547 13.92431641 C23.41748047 16.35009766 23.41748047 16.35009766 22.41748047 18.35009766 C20.35107422 18.76416016 20.35107422 18.76416016 17.85498047 18.97509766 C17.02869141 19.04986328 16.20240234 19.12462891 15.35107422 19.20166016 C14.39394531 19.27513672 14.39394531 19.27513672 13.41748047 19.35009766 C13.407173 20.19978622 13.39686554 21.04947479 13.38624573 21.9249115 C13.28844358 29.91553706 13.18595429 37.90608559 13.07814121 45.8965826 C13.02287464 50.00500183 12.96944882 54.11342812 12.92016602 58.22192383 C12.87257734 62.18362892 12.8202368 66.14524484 12.76453972 70.10684395 C12.74409116 71.62155512 12.7253823 73.13629077 12.70840645 74.65104485 C12.68441748 76.76558191 12.65435597 78.879949 12.62280273 80.99438477 C12.60725845 82.20017685 12.59171417 83.40596893 12.57569885 84.64830017 C12.41748047 87.35009766 12.41748047 87.35009766 11.41748047 88.35009766 C10.07480634 88.4364164 8.72773725 88.45716239 7.38232422 88.44775391 C6.5734375 88.44453125 5.76455078 88.44130859 4.93115234 88.43798828 C4.08101563 88.42960937 3.23087891 88.42123047 2.35498047 88.41259766 C1.50097656 88.40808594 0.64697266 88.40357422 -0.23291016 88.39892578 C-2.34947617 88.38710139 -4.46600638 88.36916534 -6.58251953 88.35009766 C-8.01037303 85.49439066 -7.7019344 83.07295409 -7.69604492 79.88085938 C-7.69619095 79.21732452 -7.69633698 78.55378967 -7.69648743 77.87014771 C-7.69578984 75.67332712 -7.68800467 73.47659096 -7.68017578 71.27978516 C-7.67831105 69.75806728 -7.67688741 68.23634881 -7.67588806 66.71463013 C-7.6720672 62.70658719 -7.66224058 58.6985804 -7.65118408 54.69055176 C-7.64096071 50.60181162 -7.63638845 46.51306564 -7.63134766 42.42431641 C-7.62061793 34.39956022 -7.60354666 26.37483343 -7.58251953 18.35009766 C-10.88251953 18.35009766 -14.18251953 18.35009766 -17.58251953 18.35009766 C-17.98124964 12.23623603 -16.7036766 7.08711315 -14.58251953 1.35009766 C-11.8481923 -1.38422958 -3.94078441 0.03141759 0 0 Z " fill="#016565" transform="translate(252.58251953125,168.64990234375)"/>
<path d="M0 0 C0 0.66 0 1.32 0 2 C0.99 2.33 1.98 2.66 3 3 C3 3.66 3 4.32 3 5 C3.66 5 4.32 5 5 5 C6.2890625 6.4609375 6.2890625 6.4609375 7.625 8.375 C8.07101563 9.00148437 8.51703125 9.62796875 8.9765625 10.2734375 C10 12 10 12 10 14 C10.66 14 11.32 14 12 14 C14.89038409 20.43950689 16.44184527 25.96725041 17 33 C18.12534105 34.35618499 18.12534105 34.35618499 21.0625 34.0625 C22.031875 34.041875 23.00125 34.02125 24 34 C24.495 36.475 24.495 36.475 25 39 C22.36 39.33 19.72 39.66 17 40 C16.91363281 40.75023437 16.82726562 41.50046875 16.73828125 42.2734375 C15.71660087 49.71576981 13.84680035 55.55492223 10 62 C9.64164062 62.62519531 9.28328125 63.25039062 8.9140625 63.89453125 C2.74774583 73.58133368 -7.20229243 78.73409748 -17.75 82.25 C-30.61862273 85.05306634 -42.88759819 82.38485929 -54 75.5625 C-57.75495588 73.00803367 -61.09879829 70.50145034 -64 67 C-64 66.34 -64 65.68 -64 65 C-64.66 65 -65.32 65 -66 65 C-71.8854504 57.73745258 -75 48.3271724 -75 39 C-77.31 39 -79.62 39 -82 39 C-82 37.68 -82 36.36 -82 35 C-78.535 34.505 -78.535 34.505 -75 34 C-74.91363281 33.24976563 -74.82726562 32.49953125 -74.73828125 31.7265625 C-72.78507504 17.49862003 -66.23874824 7.62934575 -55.0625 -1.375 C-37.5399915 -13.77068237 -17.30603257 -10.42635048 0 0 Z M-53 3 C-53 3.66 -53 4.32 -53 5 C-53.598125 5.268125 -54.19625 5.53625 -54.8125 5.8125 C-56.99847854 6.99917406 -58.41332594 8.09599113 -60 10 C-60 10.66 -60 11.32 -60 12 C-60.66 12 -61.32 12 -62 12 C-62.79423861 13.56119422 -63.58527123 15.12401964 -64.375 16.6875 C-64.81585938 17.55761719 -65.25671875 18.42773438 -65.7109375 19.32421875 C-66.13632813 20.20722656 -66.56171875 21.09023437 -67 22 C-67.38414063 22.76957031 -67.76828125 23.53914063 -68.1640625 24.33203125 C-69.39865452 27.80636416 -69.39865452 27.80636416 -69 35 C-28.905 34.505 -28.905 34.505 12 34 C8.08217032 18.32868129 5.97288099 10.37094407 -7 2 C-22.94180119 -7.28135032 -37.10962583 -4.65308462 -53 3 Z M-69 39 C-69 49.40924254 -64.93807059 58.87772353 -57.65625 66.546875 C-48.99852513 74.14280343 -40.51478188 77.53344448 -29.0625 77.4375 C-28.22009766 77.45748047 -27.37769531 77.47746094 -26.50976562 77.49804688 C-20.15982732 77.49315855 -15.60410528 75.87424838 -10 73 C-8.33805262 72.32165413 -6.67401097 71.64800425 -5 71 C-5 70.34 -5 69.68 -5 69 C-4.41734375 68.7628125 -3.8346875 68.525625 -3.234375 68.28125 C-0.52447163 66.7273194 0.86530802 64.98070569 2.75 62.5 C3.36359375 61.7059375 3.9771875 60.911875 4.609375 60.09375 C6.1844216 58.14124635 6.1844216 58.14124635 6 56 C6.66 56 7.32 56 8 56 C8.67364661 53.91891315 9.33866798 51.8350329 10 49.75 C10.556875 48.00976562 10.556875 48.00976562 11.125 46.234375 C12.17409595 42.9149072 12.17409595 42.9149072 12 39 C-14.73 39 -41.46 39 -69 39 Z " fill="#C03838" transform="translate(184,176)"/>
<path d="M0 0 C0.79792969 0.00386719 1.59585937 0.00773438 2.41796875 0.01171875 C3.21589844 0.00785156 4.01382812 0.00398437 4.8359375 0 C10.79136108 0.01011108 10.79136108 0.01011108 11.91796875 1.13671875 C12.01311467 3.84509961 12.04351807 6.52790388 12.03149414 9.23657227 C12.03164017 10.08527893 12.03178619 10.9339856 12.03193665 11.80841064 C12.03123723 14.62750766 12.02344353 17.44653946 12.015625 20.265625 C12.01376092 22.21475692 12.01233697 24.1638893 12.01133728 26.11302185 C12.0075113 31.25378707 11.99768034 36.39452422 11.9866333 41.53527832 C11.9764209 46.77677023 11.97184003 52.01826665 11.96679688 57.25976562 C11.95605814 67.55209569 11.93898076 77.84440489 11.91796875 88.13671875 C8.93874282 88.16355862 5.9597558 88.18347912 2.98046875 88.19921875 C2.13033203 88.20759766 1.28019531 88.21597656 0.40429688 88.22460938 C-0.40458984 88.22783203 -1.21347656 88.23105469 -2.046875 88.234375 C-2.79573975 88.23961182 -3.54460449 88.24484863 -4.31616211 88.25024414 C-6.08203125 88.13671875 -6.08203125 88.13671875 -7.08203125 87.13671875 C-7.18248178 84.46421808 -7.21819774 81.81753294 -7.21142578 79.14453125 C-7.2131781 78.30718445 -7.21493042 77.46983765 -7.21673584 76.6071167 C-7.22115526 73.82529661 -7.21821605 71.04353954 -7.21484375 68.26171875 C-7.21551676 66.33740222 -7.21648677 64.41308577 -7.21774292 62.48876953 C-7.21922002 58.4501871 -7.21706496 54.41162675 -7.21240234 50.37304688 C-7.20670505 45.18403364 -7.20998399 39.99507212 -7.21597481 34.80606079 C-7.21958011 30.83080655 -7.21844198 26.85556466 -7.21584702 22.88031006 C-7.21517766 20.96645095 -7.21600647 19.05259073 -7.21832657 17.13873291 C-7.22085258 14.46876025 -7.21701323 11.79887255 -7.21142578 9.12890625 C-7.21345001 8.32990906 -7.21547424 7.53091187 -7.21755981 6.70770264 C-7.19122443 -0.04976856 -6.74189395 0.01144634 0 0 Z " fill="#026565" transform="translate(286.08203125,168.86328125)"/>
<path d="M0 0 C8.58 0 17.16 0 26 0 C26.81124723 4.05623615 27.06081378 6.31589721 26.625 10.25 C26.53476562 11.12140625 26.44453125 11.9928125 26.3515625 12.890625 C26 15 26 15 25 16 C23.07332493 16.08748207 21.14348139 16.10697334 19.21484375 16.09765625 C18.04501953 16.09443359 16.87519531 16.09121094 15.66992188 16.08789062 C13.82237305 16.07532227 13.82237305 16.07532227 11.9375 16.0625 C10.08415039 16.05573242 10.08415039 16.05573242 8.19335938 16.04882812 C5.12885883 16.03699608 2.06445279 16.02051173 -1 16 C-1.02692484 13.70839681 -1.04636124 11.41670454 -1.0625 9.125 C-1.07410156 7.84882813 -1.08570313 6.57265625 -1.09765625 5.2578125 C-1 2 -1 2 0 0 Z " fill="#0D6C6C" transform="translate(406,206)"/>
<path d="M0 0 C0 0.66 0 1.32 0 2 C2.475 2.495 2.475 2.495 5 3 C5 4.32 5 5.64 5 7 C3.906875 6.835 2.81375 6.67 1.6875 6.5 C-9.30812906 5.15717096 -18.49881974 5.78230549 -28.23828125 11.1953125 C-30 12 -30 12 -33 12 C-33 12.66 -33 13.32 -33 14 C-34.98260426 15.68732277 -36.9832342 17.35366057 -39 19 C-39.33 19.66 -39.66 20.32 -40 21 C-40.66 21 -41.32 21 -42 21 C-42.309375 21.78375 -42.61875 22.5675 -42.9375 23.375 C-44 26 -44 26 -45 28 C-45.66 28 -46.32 28 -47 28 C-47.42802065 24.10732568 -47.24055597 22.37261629 -45.0859375 19.03515625 C-44.20482662 18.02417983 -43.29954552 17.03391407 -42.375 16.0625 C-41.64325562 15.28144897 -41.64325562 15.28144897 -40.89672852 14.48461914 C-35.38601343 8.92551138 -29.23419902 5.88692656 -22 3 C-21.11183594 2.64164063 -20.22367188 2.28328125 -19.30859375 1.9140625 C-12.90744697 -0.32582514 -6.72410648 -0.31194308 0 0 Z " fill="#C02C2C" transform="translate(164,167)"/>
<path d="M0 0 C2.95887459 -0.08069658 5.9155659 -0.14034665 8.875 -0.1875 C9.71675781 -0.21263672 10.55851562 -0.23777344 11.42578125 -0.26367188 C12.23144531 -0.27333984 13.03710938 -0.28300781 13.8671875 -0.29296875 C14.98262939 -0.31653442 14.98262939 -0.31653442 16.12060547 -0.34057617 C17.05090576 -0.17199097 17.05090576 -0.17199097 18 0 C18.66 0.99 19.32 1.98 20 3 C19.01 3.495 19.01 3.495 18 4 C18 3.34 18 2.68 18 2 C12.39 2 6.78 2 1 2 C1 29.72 1 57.44 1 86 C6.28 86 11.56 86 17 86 C17 86.66 17 87.32 17 88 C14.18743719 88.02684312 11.37512759 88.04676188 8.5625 88.0625 C7.76005859 88.07087891 6.95761719 88.07925781 6.13085938 88.08789062 C4.08704779 88.0965143 2.04316098 88.0522815 0 88 C-1.77270157 86.22729843 -1.12619994 83.86462706 -1.13552856 81.50358582 C-1.13249222 80.3214727 -1.13249222 80.3214727 -1.12939453 79.11547852 C-1.13114685 78.28949158 -1.13289917 77.46350464 -1.13470459 76.61248779 C-1.13912443 73.86793956 -1.13618439 71.1234552 -1.1328125 68.37890625 C-1.13348557 66.47940559 -1.13445561 64.57990502 -1.13571167 62.68040466 C-1.13718887 58.69309675 -1.1350336 54.70581118 -1.13037109 50.71850586 C-1.12467766 45.59909311 -1.12795023 40.47973282 -1.13394356 35.360322 C-1.13755186 31.43563947 -1.13640927 27.51096944 -1.13381577 23.58628654 C-1.13314704 21.69837373 -1.13397302 19.8104598 -1.13629532 17.92254829 C-1.13882581 15.28630684 -1.13497543 12.65015107 -1.12939453 10.01391602 C-1.13141876 9.22786484 -1.13344299 8.44181366 -1.13552856 7.63194275 C-1.11426335 2.22852669 -1.11426335 2.22852669 0 0 Z " fill="#1E7777" transform="translate(304,169)"/>
<path d="M0 0 C0.99 0.33 1.98 0.66 3 1 C2.67 1.33 2.34 1.66 2 2 C1.88134715 4.11089251 1.83256738 6.22573382 1.81054688 8.33984375 C1.79810692 9.33251755 1.79810692 9.33251755 1.78541565 10.34524536 C1.76798159 11.78630142 1.75282402 13.22738635 1.73963928 14.66848755 C1.71867493 16.94565378 1.691648 19.22267466 1.66296387 21.49975586 C1.60317295 26.33311526 1.55105345 31.16654144 1.5 36 C1.44086443 41.59862916 1.37864437 47.19718652 1.30812073 52.79568481 C1.28145358 55.04532592 1.26069501 57.29497388 1.2401123 59.54467773 C1.22351575 60.91650744 1.20664448 62.28833387 1.18945312 63.66015625 C1.17066101 65.46432007 1.17066101 65.46432007 1.15148926 67.30493164 C1 70 1 70 0 71 C-2.86267567 71.07325168 -5.700719 71.09238205 -8.5625 71.0625 C-9.36880859 71.05798828 -10.17511719 71.05347656 -11.00585938 71.04882812 C-13.00393756 71.03700518 -15.00197783 71.01906914 -17 71 C-17 70.34 -17 69.68 -17 69 C-11.72 69 -6.44 69 -1 69 C-1.00523682 66.94531494 -1.01047363 64.89062988 -1.01586914 62.77368164 C-1.03240672 56.00029801 -1.0434719 49.2269135 -1.05181217 42.45351505 C-1.05704046 38.34505715 -1.06413713 34.23661986 -1.07543945 30.12817383 C-1.08627025 26.16653172 -1.09227724 22.20490948 -1.09487724 18.24325371 C-1.09673114 16.72851689 -1.1003511 15.21378121 -1.10573006 13.69905281 C-1.11294307 11.58458187 -1.11399083 9.47019406 -1.11352539 7.35571289 C-1.115746 6.14992081 -1.11796661 4.94412872 -1.12025452 3.70179749 C-1 1 -1 1 0 0 Z " fill="#1C7575" transform="translate(264,186)"/>
<path d="M0 0 C0.99 0.33 1.98 0.66 3 1 C-1.42328443 11.897589 -6.5350673 17.92427361 -16 25 C-16.71484375 23.21875 -16.71484375 23.21875 -17 21 C-15.62890625 19.28125 -15.62890625 19.28125 -13.5625 17.5 C-9.04885888 13.29627438 -5.87844321 8.62010984 -2.56640625 3.44140625 C-1 1 -1 1 0 0 Z " fill="#BF2D2D" transform="translate(195,228)"/>
<path d="M0 0 C0.99 0.495 0.99 0.495 2 1 C2 14.86 2 28.72 2 43 C7.28 43 12.56 43 18 43 C18 43.66 18 44.32 18 45 C15.18743719 45.02684312 12.37512759 45.04676188 9.5625 45.0625 C8.76005859 45.07087891 7.95761719 45.07925781 7.13085938 45.08789062 C5.08704779 45.0965143 3.04316098 45.0522815 1 45 C0 44 0 44 -0.12025452 42.20933533 C-0.11803391 41.42990067 -0.11581329 40.650466 -0.11352539 39.84741211 C-0.11341209 38.52615578 -0.11341209 38.52615578 -0.11329651 37.1782074 C-0.10555458 35.74227989 -0.10555458 35.74227989 -0.09765625 34.27734375 C-0.0962413 33.30213272 -0.09482635 32.32692169 -0.09336853 31.32215881 C-0.08775133 28.19390857 -0.07519593 25.06572877 -0.0625 21.9375 C-0.05748722 19.82226666 -0.05292393 17.70703219 -0.04882812 15.59179688 C-0.03777631 10.39450704 -0.02102146 5.19725855 0 0 Z " fill="#0E6C6C" transform="translate(303,212)"/>
<path d="M0 0 C1.34888732 0.00015905 2.69778075 0.00584927 4.04663086 0.01586914 C5.10991859 0.01799156 5.10991859 0.01799156 6.19468689 0.02015686 C8.46699173 0.02577096 10.73919936 0.03832576 13.01147461 0.05102539 C14.54858257 0.05603858 16.08569206 0.0606018 17.62280273 0.06469727 C21.39823103 0.07574497 25.17358632 0.09301898 28.94897461 0.11352539 C29.93897461 2.09352539 30.92897461 4.07352539 31.94897461 6.11352539 C31.28897461 6.44352539 30.62897461 6.77352539 29.94897461 7.11352539 C29.45397461 4.63852539 29.45397461 4.63852539 28.94897461 2.11352539 C13.60397461 2.60852539 13.60397461 2.60852539 -2.05102539 3.11352539 C-2.71102539 5.42352539 -3.37102539 7.73352539 -4.05102539 10.11352539 C-4.38102539 10.11352539 -4.71102539 10.11352539 -5.05102539 10.11352539 C-4.91053021 8.63384215 -4.76347713 7.15478023 -4.61352539 5.67602539 C-4.53231445 4.85231445 -4.45110352 4.02860352 -4.36743164 3.17993164 C-3.85925942 -0.13887215 -3.47620244 0.12934577 0 0 Z " fill="#449090" transform="translate(242.051025390625,168.886474609375)"/>
<path d="M0 0 C0.66 0 1.32 0 2 0 C0.34915268 5.34560084 -3.20191671 8.66034931 -7.01171875 12.5390625 C-9.90688051 15.56617533 -11.53379032 18.11105338 -13 22 C-15.625 22.8125 -15.625 22.8125 -18 23 C-18 22.01 -18 21.02 -18 20 C-19.98 20.33 -21.96 20.66 -24 21 C-24 20.34 -24 19.68 -24 19 C-15.57142857 15.71428571 -15.57142857 15.71428571 -11 15 C-11 14.34 -11 13.68 -11 13 C-9.55431308 11.85689871 -8.10828016 10.71423119 -6.66015625 9.57421875 C-4.20727994 7.24831486 -2.70744655 4.51242861 -1.078125 1.57421875 C-0.72234375 1.05472656 -0.3665625 0.53523437 0 0 Z " fill="#BE4141" transform="translate(190,232)"/>
<path d="M0 0 C0.66 0 1.32 0 2 0 C3.24810335 3.78213135 3.03501717 7.46799294 2.87890625 11.390625 C2.85529526 12.09523865 2.83168427 12.79985229 2.80735779 13.52581787 C2.73103023 15.7674328 2.64687421 18.00867496 2.5625 20.25 C2.5092483 21.7734195 2.45650812 23.29685698 2.40429688 24.8203125 C2.27545752 28.54710155 2.13959768 32.27359667 2 36 C1.34 36 0.68 36 0 36 C0 24.12 0 12.24 0 0 Z " fill="#1B7474" transform="translate(320,218)"/>
<path d="M0 0 C0.66 0 1.32 0 2 0 C2.53293835 1.74635165 3.05090663 3.49727652 3.5625 5.25 C3.85253906 6.22453125 4.14257812 7.1990625 4.44140625 8.203125 C5 11 5 11 4 15 C-1.61 15 -7.22 15 -13 15 C-12.67 14.34 -12.34 13.68 -12 13 C-7.05 13 -2.1 13 3 13 C2.505 11.411875 2.01 9.82375 1.5 8.1875 C0.58261252 5.24421515 0 3.09875672 0 0 Z " fill="#146E6E" transform="translate(495,242)"/>
<path d="M0 0 C0.66 0.33 1.32 0.66 2 1 C1.88541307 2.43836751 1.75790884 3.87570966 1.625 5.3125 C1.55539062 6.11300781 1.48578125 6.91351563 1.4140625 7.73828125 C1 10 1 10 -1 13 C-2.87939453 13.34057617 -2.87939453 13.34057617 -5.1328125 13.29296875 C-5.93847656 13.28330078 -6.74414062 13.27363281 -7.57421875 13.26367188 C-8.41597656 13.23853516 -9.25773437 13.21339844 -10.125 13.1875 C-10.97449219 13.17396484 -11.82398438 13.16042969 -12.69921875 13.14648438 C-14.79974837 13.11108219 -16.89995293 13.05727401 -19 13 C-18.67 12.34 -18.34 11.68 -18 11 C-13.05 11 -8.1 11 -3 11 C-2.01 7.37 -1.02 3.74 0 0 Z " fill="#147171" transform="translate(470,244)"/>
<path d="M0 0 C0.33 0 0.66 0 1 0 C1 3.3 1 6.6 1 10 C6.28 10 11.56 10 17 10 C17 10.66 17 11.32 17 12 C14.18743719 12.02684312 11.37512759 12.04676188 8.5625 12.0625 C7.76005859 12.07087891 6.95761719 12.07925781 6.13085938 12.08789062 C4.08704779 12.0965143 2.04316098 12.0522815 0 12 C-1 11 -1 11 -1.1328125 8.75 C-1.13023437 7.8425 -1.12765625 6.935 -1.125 6 C-1.12757813 5.0925 -1.13015625 4.185 -1.1328125 3.25 C-1 1 -1 1 0 0 Z " fill="#1A7070" transform="translate(304,245)"/>
<path d="M0 0 C1.4540625 0.0309375 1.4540625 0.0309375 2.9375 0.0625 C3.31968767 1.71864657 3.65145102 3.38707024 3.9375 5.0625 C2.9375 6.0625 2.9375 6.0625 -0.125 6.125 C-1.094375 6.104375 -2.06375 6.08375 -3.0625 6.0625 C-3.44468767 4.40635343 -3.77645102 2.73792976 -4.0625 1.0625 C-3.0625 0.0625 -3.0625 0.0625 0 0 Z " fill="#C48787" transform="translate(462.0625,264.9375)"/>
<path d="M0 0 C5.61 0 11.22 0 17 0 C17 0.99 17 1.98 17 3 C11.06 3 5.12 3 -1 3 C-0.67 2.01 -0.34 1.02 0 0 Z " fill="#458D8D" transform="translate(280,169)"/>
<path d="M0 0 C-0.875 3.875 -0.875 3.875 -2 5 C-3.66617115 5.04063832 -5.33388095 5.042721 -7 5 C-7.33 3.35 -7.66 1.7 -8 0 C-4.71023192 -1.09658936 -3.28696233 -0.79953138 0 0 Z " fill="#C97A7A" transform="translate(269,266)"/>
<path d="M0 0 C1.2065625 0.0309375 1.2065625 0.0309375 2.4375 0.0625 C2.81968767 1.71864657 3.15145102 3.38707024 3.4375 5.0625 C2.4375 6.0625 2.4375 6.0625 -0.125 6.125 C-1.3315625 6.0940625 -1.3315625 6.0940625 -2.5625 6.0625 C-2.94468767 4.40635343 -3.27645102 2.73792976 -3.5625 1.0625 C-2.5625 0.0625 -2.5625 0.0625 0 0 Z " fill="#D07676" transform="translate(425.5625,264.9375)"/>
<path d="M0 0 C-0.33 0.99 -0.66 1.98 -1 3 C-6.61 3 -12.22 3 -18 3 C-18 2.34 -18 1.68 -18 1 C-15.37504621 0.83257698 -12.75004205 0.6660283 -10.125 0.5 C-9.00544922 0.42845703 -9.00544922 0.42845703 -7.86328125 0.35546875 C-2.2265625 0 -2.2265625 0 0 0 Z " fill="#167171" transform="translate(265,254)"/>
<path d="M0 0 C0 3.52032428 -0.70351351 4.4385343 -3 7 C-3.66 7 -4.32 7 -5 7 C-5.309375 7.78375 -5.61875 8.5675 -5.9375 9.375 C-7 12 -7 12 -8 14 C-8.66 14 -9.32 14 -10 14 C-10.5 11.375 -10.5 11.375 -10 8 C-7.56806543 5.63469377 -4.81409666 3.87606444 -2 2 C-1.34 1.34 -0.68 0.68 0 0 Z " fill="#B82626" transform="translate(127,181)"/>
<path d="M0 0 C0 0.99 0 1.98 0 3 C-2.31 3 -4.62 3 -7 3 C-7 3.66 -7 4.32 -7 5 C-4.69 5 -2.38 5 0 5 C0 5.99 0 6.98 0 8 C-0.66 8 -1.32 8 -2 8 C-2 7.34 -2 6.68 -2 6 C-4.31 6 -6.62 6 -9 6 C-9 4.68 -9 3.36 -9 2 C-2.25 0 -2.25 0 0 0 Z " fill="#C24E4E" transform="translate(111,209)"/>
<path d="M0 0 C2.00720923 0.28674418 4.0085944 0.61866701 6 1 C5.67 2.65 5.34 4.3 5 6 C3.35 6 1.7 6 0 6 C-0.38218767 4.34385343 -0.71395102 2.67542976 -1 1 C-0.67 0.67 -0.34 0.34 0 0 Z " fill="#D17171" transform="translate(414,265)"/>
<path d="M0 0 C2.625 0.375 2.625 0.375 5 1 C4.67 2.65 4.34 4.3 4 6 C2.35 6 0.7 6 -1 6 C-1.625 4.125 -1.625 4.125 -2 2 C-1.34 1.34 -0.68 0.68 0 0 Z " fill="#CE7777" transform="translate(397,265)"/>
<path d="M0 0 C2.00720923 0.28674418 4.0085944 0.61866701 6 1 C5.67 2.65 5.34 4.3 5 6 C3.35 6 1.7 6 0 6 C-0.38218767 4.34385343 -0.71395102 2.67542976 -1 1 C-0.67 0.67 -0.34 0.34 0 0 Z " fill="#C88A8A" transform="translate(272,265)"/>
<path d="M0 0 C1.67542976 0.28604898 3.34385343 0.61781233 5 1 C4.67 2.65 4.34 4.3 4 6 C2.35 6 0.7 6 -1 6 C-1.042721 4.33388095 -1.04063832 2.66617115 -1 1 C-0.67 0.67 -0.34 0.34 0 0 Z " fill="#C77A7A" transform="translate(328,265)"/>
<path d="M0 0 C1.65 0.33 3.3 0.66 5 1 C4.67 2.65 4.34 4.3 4 6 C2.35 5.67 0.7 5.34 -1 5 C-0.67 3.35 -0.34 1.7 0 0 Z " fill="#C88181" transform="translate(469,265)"/>
<path d="M0 0 C1.65 0.33 3.3 0.66 5 1 C4.67 2.65 4.34 4.3 4 6 C2.35 5.67 0.7 5.34 -1 5 C-0.67 3.35 -0.34 1.7 0 0 Z " fill="#D08484" transform="translate(374,265)"/>
<path d="M0 0 C1.65 0.33 3.3 0.66 5 1 C4.67 2.65 4.34 4.3 4 6 C2.35 5.67 0.7 5.34 -1 5 C-0.67 3.35 -0.34 1.7 0 0 Z " fill="#D17D7D" transform="translate(388,265)"/>
<path d="M0 0 C1.65 0.33 3.3 0.66 5 1 C4.67 2.65 4.34 4.3 4 6 C2.35 5.67 0.7 5.34 -1 5 C-0.67 3.35 -0.34 1.7 0 0 Z " fill="#CC8282" transform="translate(289,265)"/>
<path d="M0 0 C1.65 0.33 3.3 0.66 5 1 C4.67 2.65 4.34 4.3 4 6 C2.35 5.67 0.7 5.34 -1 5 C-0.67 3.35 -0.34 1.7 0 0 Z " fill="#C97D7D" transform="translate(366,265)"/>
<path d="M0 0 C1.65 0.33 3.3 0.66 5 1 C4.67 2.65 4.34 4.3 4 6 C2.35 5.67 0.7 5.34 -1 5 C-0.67 3.35 -0.34 1.7 0 0 Z " fill="#CE8383" transform="translate(341,265)"/>
<path d="M0 0 C1.32 0 2.64 0 4 0 C5.125 3.75 5.125 3.75 4 6 C2.35 6 0.7 6 -1 6 C-1.042721 4.33388095 -1.04063832 2.66617115 -1 1 C-0.67 0.67 -0.34 0.34 0 0 Z " fill="#CF7E7E" transform="translate(406,265)"/>
<path d="M0 0 C1.67542976 0.28604898 3.34385343 0.61781233 5 1 C5 2.65 5 4.3 5 6 C3.35 6 1.7 6 0 6 C-0.38218767 4.34385343 -0.71395102 2.67542976 -1 1 C-0.67 0.67 -0.34 0.34 0 0 Z " fill="#C37575" transform="translate(319,265)"/>
<path d="M0 0 C1.32 0 2.64 0 4 0 C4.33 1.65 4.66 3.3 5 5 C3.35 5.33 1.7 5.66 0 6 C-0.38218767 4.34385343 -0.71395102 2.67542976 -1 1 C-0.67 0.67 -0.34 0.34 0 0 Z " fill="#CF7F7F" transform="translate(281,265)"/>
<path d="M0 0 C1.32 0.99 2.64 1.98 4 3 C3.67 3.99 3.34 4.98 3 6 C1.35 6 -0.3 6 -2 6 C-2.33 5.34 -2.66 4.68 -3 4 C-2.67 3.01 -2.34 2.02 -2 1 C-1.34 0.67 -0.68 0.34 0 0 Z " fill="#CC7F7F" transform="translate(359,265)"/>
<path d="M0 0 C2.0625 0.4375 2.0625 0.4375 4 1 C4 2.65 4 4.3 4 6 C2.35 6 0.7 6 -1 6 C-1.042721 4.33388095 -1.04063832 2.66617115 -1 1 C-0.67 0.67 -0.34 0.34 0 0 Z " fill="#D27B7B" transform="translate(432,265)"/>
<path d="M0 0 C2.475 0.495 2.475 0.495 5 1 C4.67 2.65 4.34 4.3 4 6 C2.68 6 1.36 6 0 6 C0 4.02 0 2.04 0 0 Z " fill="#CC7B7B" transform="translate(297,265)"/>
<path d="M0 0 C0.33 0 0.66 0 1 0 C0.67 3.63 0.34 7.26 0 11 C-1.32 11 -2.64 11 -4 11 C-3.5247412 9.35303396 -3.04468109 7.70745272 -2.5625 6.0625 C-2.29566406 5.14597656 -2.02882813 4.22945312 -1.75390625 3.28515625 C-1 1 -1 1 0 0 Z " fill="#127070" transform="translate(342,217)"/>
<path d="M0 0 C2.0625 0.4375 2.0625 0.4375 4 1 C4 2.32 4 3.64 4 5 C2.35 5.33 0.7 5.66 -1 6 C-1.042721 4.33388095 -1.04063832 2.66617115 -1 1 C-0.67 0.67 -0.34 0.34 0 0 Z " fill="#CC8787" transform="translate(350,265)"/>
<path d="M0 0 C2.475 0.495 2.475 0.495 5 1 C4.34 2.65 3.68 4.3 3 6 C2.01 5.67 1.02 5.34 0 5 C0 3.35 0 1.7 0 0 Z " fill="#C99090" transform="translate(445,265)"/>
<path d="M0 0 C1.32 0 2.64 0 4 0 C4 1.65 4 3.3 4 5 C2.68 5 1.36 5 0 5 C-0.5625 3.0625 -0.5625 3.0625 -1 1 C-0.67 0.67 -0.34 0.34 0 0 Z " fill="#CB9191" transform="translate(311,265)"/>
<path d="M0 0 C2.31459868 1.81817001 2.95377187 2.75615543 3.51171875 5.69921875 C3.56972656 6.68535156 3.62773437 7.67148438 3.6875 8.6875 C3.75324219 9.68136719 3.81898438 10.67523438 3.88671875 11.69921875 C3.92410156 12.45847656 3.96148437 13.21773437 4 14 C1.01520806 9.52281208 0 5.36175907 0 0 Z " fill="#177272" transform="translate(491,227)"/>
<path d="M0 0 C0.66 0 1.32 0 2 0 C1.71682074 1.60568666 1.42312209 3.20952047 1.125 4.8125 C0.96257812 5.70582031 0.80015625 6.59914062 0.6328125 7.51953125 C0 10 0 10 -2 13 C-1.85915204 11.20793453 -1.71216299 9.41635083 -1.5625 7.625 C-1.48128906 6.62726563 -1.40007812 5.62953125 -1.31640625 4.6015625 C-1 2 -1 2 0 0 Z " fill="#0E7070" transform="translate(338,176)"/>
<path d="M0 0 C0.99 0.33 1.98 0.66 3 1 C2.67 2.65 2.34 4.3 2 6 C1.01 5.67 0.02 5.34 -1 5 C-0.67 3.35 -0.34 1.7 0 0 Z " fill="#C48989" transform="translate(453,265)"/>
<path d="M0 0 C1.65 0 3.3 0 5 0 C4.67 1.32 4.34 2.64 4 4 C3.34 3.67 2.68 3.34 2 3 C1.67 3.66 1.34 4.32 1 5 C0.34 5 -0.32 5 -1 5 C-0.67 3.35 -0.34 1.7 0 0 Z " fill="#C06A6A" transform="translate(459,265)"/>
<path d="M0 0 C2 2 2 2 2 5 C0.35 4.67 -1.3 4.34 -3 4 C-3 3.01 -3 2.02 -3 1 C-2.01 0.67 -1.02 0.34 0 0 Z " fill="#DC9999" transform="translate(427,265)"/>
<path d="M0 0 C2.97 0.495 2.97 0.495 6 1 C6 2.32 6 3.64 6 5 C5.34 5 4.68 5 4 5 C4 4.34 4 3.68 4 3 C2.35 2.67 0.7 2.34 -1 2 C-0.67 1.34 -0.34 0.68 0 0 Z " fill="#CF8A8A" transform="translate(414,265)"/>
</svg>